<svg width="228" height="48" viewBox="0 0 228 48" fill="none" xmlns="http://www.w3.org/2000/svg">
<path d="M0 23.4263C0 15.7873 6.01911 9.50498 13.651 9.17819L204.086 1.02397C217.125 0.465674 228 10.8854 228 23.9358C228 37.0346 217.047 47.4724 203.964 46.8421L13.575 37.6709C5.97432 37.3047 0 31.0357 0 23.4263Z" fill="url(#paint0_linear_284_2029)"/>
<path d="M31.5398 32L26.5455 14.5455H30.5767L33.4659 26.6733H33.6108L36.7983 14.5455H40.25L43.429 26.6989H43.5824L46.4716 14.5455H50.5028L45.5085 32H41.9119L38.5881 20.5881H38.4517L35.1364 32H31.5398ZM56.0405 24.4318V32H52.4098V14.5455H55.9382V21.2188H56.0916C56.3871 20.446 56.8643 19.8409 57.5234 19.4034C58.1825 18.9602 59.0092 18.7386 60.0036 18.7386C60.9126 18.7386 61.7053 18.9375 62.3814 19.3352C63.0632 19.7273 63.5916 20.2926 63.9666 21.0312C64.3473 21.7642 64.5348 22.642 64.5291 23.6648V32H60.8984V24.3125C60.9041 23.5057 60.6996 22.8778 60.2848 22.429C59.8757 21.9801 59.3018 21.7557 58.5632 21.7557C58.0689 21.7557 57.6314 21.8608 57.2507 22.071C56.8757 22.2812 56.5803 22.5881 56.3643 22.9915C56.1541 23.3892 56.0462 23.8693 56.0405 24.4318ZM69.1591 36.9091C68.6989 36.9091 68.267 36.8722 67.8636 36.7983C67.4659 36.7301 67.1364 36.642 66.875 36.5341L67.6932 33.8239C68.1193 33.9545 68.5028 34.0256 68.8438 34.0369C69.1903 34.0483 69.4886 33.9688 69.7386 33.7983C69.9943 33.6278 70.2017 33.3381 70.3608 32.929L70.5739 32.375L65.8778 18.9091H69.696L72.4062 28.5227H72.5426L75.2784 18.9091H79.1222L74.0341 33.4148C73.7898 34.1193 73.4574 34.733 73.0369 35.2557C72.6222 35.7841 72.0966 36.1903 71.4602 36.4744C70.8239 36.7642 70.0568 36.9091 69.1591 36.9091ZM102.004 20.6562H98.2706C98.2024 20.1733 98.0632 19.7443 97.853 19.3693C97.6428 18.9886 97.3729 18.6648 97.0433 18.3977C96.7138 18.1307 96.3331 17.9261 95.9013 17.7841C95.4751 17.642 95.0121 17.571 94.5121 17.571C93.6087 17.571 92.8217 17.7955 92.1513 18.2443C91.4808 18.6875 90.9609 19.3352 90.5916 20.1875C90.2223 21.0341 90.0376 22.0625 90.0376 23.2727C90.0376 24.517 90.2223 25.5625 90.5916 26.4091C90.9666 27.2557 91.4893 27.8949 92.1598 28.3267C92.8303 28.7585 93.6058 28.9744 94.4865 28.9744C94.9808 28.9744 95.4382 28.9091 95.8587 28.7784C96.2848 28.6477 96.6626 28.4574 96.9922 28.2074C97.3217 27.9517 97.5945 27.642 97.8104 27.2784C98.032 26.9148 98.1854 26.5 98.2706 26.0341L102.004 26.0511C101.907 26.8523 101.665 27.625 101.279 28.3693C100.898 29.108 100.384 29.7699 99.7365 30.3551C99.0945 30.9347 98.3274 31.3949 97.4354 31.7358C96.549 32.071 95.5462 32.2386 94.4268 32.2386C92.87 32.2386 91.478 31.8864 90.2507 31.1818C89.0291 30.4773 88.0632 29.4574 87.353 28.1222C86.6484 26.7869 86.2962 25.1705 86.2962 23.2727C86.2962 21.3693 86.6541 19.75 87.37 18.4148C88.0859 17.0795 89.0575 16.0625 90.2848 15.3636C91.5121 14.6591 92.8928 14.3068 94.4268 14.3068C95.4382 14.3068 96.3757 14.4489 97.2393 14.733C98.1087 15.017 98.8786 15.4318 99.549 15.9773C100.219 16.517 100.765 17.179 101.185 17.9631C101.612 18.7472 101.884 19.6449 102.004 20.6562ZM108.212 24.4318V32H104.582V14.5455H108.11V21.2188H108.263C108.559 20.446 109.036 19.8409 109.695 19.4034C110.354 18.9602 111.181 18.7386 112.175 18.7386C113.085 18.7386 113.877 18.9375 114.553 19.3352C115.235 19.7273 115.763 20.2926 116.138 21.0312C116.519 21.7642 116.707 22.642 116.701 23.6648V32H113.07V24.3125C113.076 23.5057 112.871 22.8778 112.457 22.429C112.048 21.9801 111.474 21.7557 110.735 21.7557C110.241 21.7557 109.803 21.8608 109.423 22.071C109.048 22.2812 108.752 22.5881 108.536 22.9915C108.326 23.3892 108.218 23.8693 108.212 24.4318ZM125.473 32.2557C124.149 32.2557 123.004 31.9744 122.038 31.4119C121.078 30.8437 120.337 30.054 119.814 29.0426C119.291 28.0256 119.03 26.8466 119.03 25.5057C119.03 24.1534 119.291 22.9716 119.814 21.9602C120.337 20.9432 121.078 20.1534 122.038 19.5909C123.004 19.0227 124.149 18.7386 125.473 18.7386C126.797 18.7386 127.939 19.0227 128.899 19.5909C129.865 20.1534 130.609 20.9432 131.132 21.9602C131.655 22.9716 131.916 24.1534 131.916 25.5057C131.916 26.8466 131.655 28.0256 131.132 29.0426C130.609 30.054 129.865 30.8437 128.899 31.4119C127.939 31.9744 126.797 32.2557 125.473 32.2557ZM125.49 29.4432C126.092 29.4432 126.595 29.2727 126.999 28.9318C127.402 28.5852 127.706 28.1136 127.911 27.517C128.121 26.9205 128.226 26.2415 128.226 25.4801C128.226 24.7188 128.121 24.0398 127.911 23.4432C127.706 22.8466 127.402 22.375 126.999 22.0284C126.595 21.6818 126.092 21.5085 125.49 21.5085C124.882 21.5085 124.371 21.6818 123.956 22.0284C123.547 22.375 123.237 22.8466 123.027 23.4432C122.822 24.0398 122.72 24.7188 122.72 25.4801C122.72 26.2415 122.822 26.9205 123.027 27.517C123.237 28.1136 123.547 28.5852 123.956 28.9318C124.371 29.2727 124.882 29.4432 125.49 29.4432ZM140.192 32.2557C138.868 32.2557 137.723 31.9744 136.757 31.4119C135.797 30.8437 135.055 30.054 134.533 29.0426C134.01 28.0256 133.749 26.8466 133.749 25.5057C133.749 24.1534 134.01 22.9716 134.533 21.9602C135.055 20.9432 135.797 20.1534 136.757 19.5909C137.723 19.0227 138.868 18.7386 140.192 18.7386C141.516 18.7386 142.658 19.0227 143.618 19.5909C144.584 20.1534 145.328 20.9432 145.851 21.9602C146.374 22.9716 146.635 24.1534 146.635 25.5057C146.635 26.8466 146.374 28.0256 145.851 29.0426C145.328 30.054 144.584 30.8437 143.618 31.4119C142.658 31.9744 141.516 32.2557 140.192 32.2557ZM140.209 29.4432C140.811 29.4432 141.314 29.2727 141.717 28.9318C142.121 28.5852 142.425 28.1136 142.629 27.517C142.839 26.9205 142.945 26.2415 142.945 25.4801C142.945 24.7188 142.839 24.0398 142.629 23.4432C142.425 22.8466 142.121 22.375 141.717 22.0284C141.314 21.6818 140.811 21.5085 140.209 21.5085C139.601 21.5085 139.089 21.6818 138.675 22.0284C138.266 22.375 137.956 22.8466 137.746 23.4432C137.541 24.0398 137.439 24.7188 137.439 25.4801C137.439 26.2415 137.541 26.9205 137.746 27.517C137.956 28.1136 138.266 28.5852 138.675 28.9318C139.089 29.2727 139.601 29.4432 140.209 29.4432ZM159.888 22.642L156.564 22.8466C156.507 22.5625 156.385 22.3068 156.197 22.0795C156.01 21.8466 155.763 21.6619 155.456 21.5256C155.155 21.3835 154.794 21.3125 154.374 21.3125C153.811 21.3125 153.337 21.4318 152.95 21.6705C152.564 21.9034 152.371 22.2159 152.371 22.608C152.371 22.9205 152.496 23.1847 152.746 23.4006C152.996 23.6165 153.425 23.7898 154.033 23.9205L156.402 24.3977C157.675 24.6591 158.624 25.0795 159.249 25.6591C159.874 26.2386 160.186 27 160.186 27.9432C160.186 28.8011 159.933 29.554 159.428 30.2017C158.928 30.8494 158.24 31.3551 157.365 31.7188C156.496 32.0767 155.493 32.2557 154.357 32.2557C152.624 32.2557 151.243 31.8949 150.214 31.1733C149.192 30.446 148.592 29.4574 148.416 28.2074L151.987 28.0199C152.095 28.5483 152.357 28.9517 152.771 29.2301C153.186 29.5028 153.717 29.6392 154.365 29.6392C155.001 29.6392 155.513 29.517 155.899 29.2727C156.291 29.0227 156.49 28.7017 156.496 28.3097C156.49 27.9801 156.351 27.7102 156.078 27.5C155.805 27.2841 155.385 27.1193 154.817 27.0057L152.55 26.554C151.271 26.2983 150.32 25.8551 149.695 25.2244C149.075 24.5937 148.766 23.7898 148.766 22.8125C148.766 21.9716 148.993 21.2472 149.447 20.6392C149.908 20.0312 150.553 19.5625 151.382 19.233C152.217 18.9034 153.195 18.7386 154.314 18.7386C155.967 18.7386 157.268 19.0881 158.217 19.7869C159.172 20.4858 159.729 21.4375 159.888 22.642ZM168.438 32.2557C167.092 32.2557 165.933 31.983 164.961 31.4375C163.995 30.8864 163.251 30.108 162.728 29.1023C162.205 28.0909 161.944 26.8949 161.944 25.5142C161.944 24.1676 162.205 22.9858 162.728 21.9688C163.251 20.9517 163.987 20.1591 164.935 19.5909C165.89 19.0227 167.009 18.7386 168.293 18.7386C169.157 18.7386 169.961 18.8778 170.705 19.1562C171.455 19.429 172.109 19.8409 172.665 20.392C173.228 20.9432 173.665 21.6364 173.978 22.4716C174.29 23.3011 174.447 24.2727 174.447 25.3864V26.3835H163.393V24.1335H171.029C171.029 23.6108 170.915 23.1477 170.688 22.7443C170.461 22.3409 170.146 22.0256 169.742 21.7983C169.344 21.5653 168.881 21.4489 168.353 21.4489C167.802 21.4489 167.313 21.5767 166.887 21.8324C166.467 22.0824 166.137 22.4205 165.898 22.8466C165.66 23.267 165.538 23.7358 165.532 24.2528V26.392C165.532 27.0398 165.651 27.5994 165.89 28.071C166.134 28.5426 166.478 28.9062 166.921 29.1619C167.364 29.4176 167.89 29.5455 168.498 29.5455C168.901 29.5455 169.271 29.4886 169.606 29.375C169.941 29.2614 170.228 29.0909 170.467 28.8636C170.705 28.6364 170.887 28.358 171.012 28.0284L174.37 28.25C174.2 29.0568 173.85 29.7614 173.322 30.3636C172.799 30.9602 172.123 31.4261 171.293 31.7614C170.469 32.0909 169.518 32.2557 168.438 32.2557ZM193.22 14.5455H196.911V25.8807C196.911 27.1534 196.607 28.267 195.999 29.2216C195.396 30.1761 194.553 30.9205 193.467 31.4545C192.382 31.983 191.118 32.2472 189.675 32.2472C188.226 32.2472 186.959 31.983 185.874 31.4545C184.788 30.9205 183.945 30.1761 183.342 29.2216C182.74 28.267 182.439 27.1534 182.439 25.8807V14.5455H186.129V25.5653C186.129 26.2301 186.274 26.821 186.564 27.3381C186.859 27.8551 187.274 28.2614 187.808 28.5568C188.342 28.8523 188.964 29 189.675 29C190.391 29 191.013 28.8523 191.541 28.5568C192.075 28.2614 192.487 27.8551 192.777 27.3381C193.072 26.821 193.22 26.2301 193.22 25.5653V14.5455ZM210.771 22.642L207.447 22.8466C207.39 22.5625 207.268 22.3068 207.08 22.0795C206.893 21.8466 206.646 21.6619 206.339 21.5256C206.038 21.3835 205.677 21.3125 205.256 21.3125C204.694 21.3125 204.219 21.4318 203.833 21.6705C203.447 21.9034 203.254 22.2159 203.254 22.608C203.254 22.9205 203.379 23.1847 203.629 23.4006C203.879 23.6165 204.308 23.7898 204.915 23.9205L207.285 24.3977C208.558 24.6591 209.506 25.0795 210.131 25.6591C210.756 26.2386 211.069 27 211.069 27.9432C211.069 28.8011 210.816 29.554 210.31 30.2017C209.81 30.8494 209.123 31.3551 208.248 31.7188C207.379 32.0767 206.376 32.2557 205.239 32.2557C203.506 32.2557 202.126 31.8949 201.097 31.1733C200.075 30.446 199.475 29.4574 199.299 28.2074L202.87 28.0199C202.978 28.5483 203.239 28.9517 203.654 29.2301C204.069 29.5028 204.6 29.6392 205.248 29.6392C205.884 29.6392 206.396 29.517 206.782 29.2727C207.174 29.0227 207.373 28.7017 207.379 28.3097C207.373 27.9801 207.234 27.7102 206.961 27.5C206.688 27.2841 206.268 27.1193 205.7 27.0057L203.433 26.554C202.154 26.2983 201.202 25.8551 200.577 25.2244C199.958 24.5937 199.648 23.7898 199.648 22.8125C199.648 21.9716 199.876 21.2472 200.33 20.6392C200.79 20.0312 201.435 19.5625 202.265 19.233C203.1 18.9034 204.077 18.7386 205.197 18.7386C206.85 18.7386 208.151 19.0881 209.1 19.7869C210.055 20.4858 210.612 21.4375 210.771 22.642Z" fill="white"/>
<defs>
<linearGradient id="paint0_linear_284_2029" x1="228" y1="23.5933" x2="93.86" y2="23.5932" gradientUnits="userSpaceOnUse">
<stop stop-color="#1DA99E"/>
<stop offset="1" stop-color="#1DA99E" stop-opacity="0"/>
</linearGradient>
</defs>
</svg>
