<svg width="56" height="56" viewBox="0 0 56 56" fill="none" xmlns="http://www.w3.org/2000/svg">
<g filter="url(#filter0_b_584_470)">
<rect width="56" height="56" rx="8" fill="url(#paint0_radial_584_470)" fill-opacity="0.4"/>
<path d="M33.1075 28.9502C33.2335 29.032 33.3753 29.0718 33.5163 29.0718C33.7615 29.0718 34.0015 28.9517 34.1455 28.7312C34.93 27.5282 36.2553 26.809 37.6923 26.809C38.107 26.809 38.4423 26.4737 38.4423 26.059C38.4423 25.6443 38.107 25.309 37.6923 25.309C35.746 25.309 33.9513 26.2825 32.8885 27.9122C32.662 28.2595 32.7603 28.7237 33.1075 28.9502Z" fill="url(#paint1_linear_584_470)"/>
<path d="M41.0155 26.809C43.3503 26.809 45.25 28.7087 45.25 31.0435C45.25 31.4582 45.5853 31.7935 46 31.7935C46.4148 31.7935 46.75 31.4582 46.75 31.0435C46.75 27.8815 44.1768 25.309 41.0155 25.309C40.6008 25.309 40.2655 25.6443 40.2655 26.059C40.2655 26.4737 40.6008 26.809 41.0155 26.809Z" fill="url(#paint2_linear_584_470)"/>
<path d="M25.7845 28.1942H30.2155C30.6303 28.1942 30.9655 27.859 30.9655 27.4443C30.9655 27.0295 30.6303 26.6943 30.2155 26.6943H25.7845C25.3698 26.6943 25.0345 27.0295 25.0345 27.4443C25.0345 27.859 25.3698 28.1942 25.7845 28.1942Z" fill="url(#paint3_linear_584_470)"/>
<path d="M18.3077 26.809C19.7447 26.809 21.0707 27.5275 21.8545 28.7312C21.9977 28.9517 22.2385 29.0718 22.4837 29.0718C22.6247 29.0718 22.7665 29.032 22.8925 28.9502C23.2397 28.7237 23.338 28.2595 23.1115 27.9122C22.0487 26.2825 20.2532 25.309 18.3077 25.309C17.893 25.309 17.5577 25.6443 17.5577 26.059C17.5577 26.4737 17.893 26.809 18.3077 26.809Z" fill="url(#paint4_linear_584_470)"/>
<path d="M10 31.7942C10.4147 31.7942 10.75 31.459 10.75 31.0442C10.75 28.7095 12.6497 26.8097 14.9845 26.8097C15.3993 26.8097 15.7345 26.4745 15.7345 26.0597C15.7345 25.645 15.3993 25.3097 14.9845 25.3097C11.8232 25.309 9.25 27.8822 9.25 31.0442C9.25 31.4582 9.58525 31.7942 10 31.7942Z" fill="url(#paint5_linear_584_470)"/>
<path d="M39.3542 26.809C42.0122 26.809 44.2577 24.5635 44.2577 21.9055C44.2577 19.2475 42.0122 17.002 39.3542 17.002C36.6955 17.002 34.45 19.2475 34.45 21.9055C34.45 24.5635 36.6955 26.809 39.3542 26.809ZM39.3542 18.502C41.1992 18.502 42.7577 20.0605 42.7577 21.9055C42.7577 23.7505 41.1992 25.309 39.3542 25.309C37.5092 25.309 35.95 23.7505 35.95 21.9055C35.95 20.0605 37.5092 18.502 39.3542 18.502Z" fill="url(#paint6_linear_584_470)"/>
<path d="M46 34.2865C46.4147 34.2865 46.75 33.9513 46.75 33.5365V31.0442C46.75 30.6295 46.4147 30.2942 46 30.2942C45.5853 30.2942 45.25 30.6295 45.25 31.0442V33.5365C45.25 33.9513 45.5853 34.2865 46 34.2865Z" fill="url(#paint7_linear_584_470)"/>
<path d="M19.1388 33.34C18.724 33.34 18.3888 33.6753 18.3888 34.09V37.4132C18.3888 37.828 18.724 38.1632 19.1388 38.1632C19.5535 38.1632 19.8888 37.828 19.8888 37.4132V34.09C19.8888 33.6753 19.5528 33.34 19.1388 33.34Z" fill="url(#paint8_linear_584_470)"/>
<path d="M28.0001 28.1943C31.4088 28.1943 34.2888 25.3143 34.2888 21.9055C34.2888 18.4968 31.4088 15.6168 28.0001 15.6168C24.5913 15.6168 21.7113 18.4968 21.7113 21.9055C21.7113 25.3143 24.5913 28.1943 28.0001 28.1943ZM28.0001 17.1168C30.5958 17.1168 32.7888 19.3098 32.7888 21.9055C32.7888 24.5013 30.5958 26.6943 28.0001 26.6943C25.4043 26.6943 23.2113 24.5013 23.2113 21.9055C23.2113 19.3098 25.4043 17.1168 28.0001 17.1168Z" fill="url(#paint9_linear_584_470)"/>
<path d="M36.8612 33.34C36.4465 33.34 36.1112 33.6753 36.1112 34.09V37.4132C36.1112 37.828 36.4465 38.1632 36.8612 38.1632C37.276 38.1632 37.6112 37.828 37.6112 37.4132V34.09C37.6112 33.6753 37.276 33.34 36.8612 33.34Z" fill="url(#paint10_linear_584_470)"/>
<path d="M16.6458 26.809C19.3038 26.809 21.5493 24.5635 21.5493 21.9055C21.5493 19.2475 19.3038 17.002 16.6458 17.002C13.9878 17.002 11.7423 19.2475 11.7423 21.9055C11.7423 24.5635 13.9878 26.809 16.6458 26.809ZM16.6458 18.502C18.4908 18.502 20.0493 20.0605 20.0493 21.9055C20.0493 23.7505 18.4908 25.309 16.6458 25.309C14.8008 25.309 13.2423 23.7505 13.2423 21.9055C13.2423 20.0605 14.8008 18.502 16.6458 18.502Z" fill="url(#paint11_linear_584_470)"/>
<path d="M10 34.2865C10.4147 34.2865 10.75 33.9513 10.75 33.5365V31.0442C10.75 30.6295 10.4147 30.2942 10 30.2942C9.58525 30.2942 9.25 30.6295 9.25 31.0442V33.5365C9.25 33.9513 9.58525 34.2865 10 34.2865Z" fill="url(#paint12_linear_584_470)"/>
<path d="M9.64672 34.1988C11.1737 35.0125 12.8177 35.5503 14.5315 35.7977C14.5682 35.803 14.6042 35.8053 14.6395 35.8053C15.0062 35.8053 15.3272 35.536 15.3812 35.1625C15.4397 34.7522 15.1555 34.372 14.7452 34.3128C13.2032 34.0908 11.7257 33.6078 10.3532 32.875C9.98647 32.6808 9.53347 32.8195 9.33772 33.184C9.14272 33.5485 9.28147 34.0038 9.64672 34.1988Z" fill="url(#paint13_linear_584_470)"/>
<path d="M40.6187 35.1618C40.6727 35.5353 40.9937 35.8045 41.3605 35.8045C41.3957 35.8045 41.4317 35.8023 41.4685 35.797C43.1822 35.5495 44.8262 35.0118 46.3532 34.198C46.7185 34.003 46.8572 33.5485 46.6622 33.1825C46.4665 32.818 46.0157 32.6793 45.6467 32.8735C44.2742 33.6063 42.796 34.0893 41.2547 34.3113C40.8445 34.3713 40.5602 34.7515 40.6187 35.1618Z" fill="url(#paint14_linear_584_470)"/>
<path d="M37.6923 26.809H41.0155C41.4303 26.809 41.7655 26.4737 41.7655 26.059C41.7655 25.6443 41.4303 25.309 41.0155 25.309H37.6923C37.2775 25.309 36.9423 25.6443 36.9423 26.059C36.9423 26.4737 37.2775 26.809 37.6923 26.809Z" fill="url(#paint15_linear_584_470)"/>
<path d="M19.1388 34.84C19.5535 34.84 19.8888 34.5047 19.8888 34.09C19.8888 30.8387 22.5333 28.1942 25.7845 28.1942C26.1993 28.1942 26.5345 27.859 26.5345 27.4443C26.5345 27.0295 26.1993 26.6943 25.7845 26.6943C21.706 26.6943 18.3888 30.0122 18.3888 34.09C18.3888 34.5047 18.724 34.84 19.1388 34.84Z" fill="url(#paint16_linear_584_470)"/>
<path d="M30.2155 28.1942C33.4667 28.1942 36.1112 30.8387 36.1112 34.09C36.1112 34.5047 36.4465 34.84 36.8612 34.84C37.276 34.84 37.6112 34.5047 37.6112 34.09C37.6112 30.0115 34.2932 26.6943 30.2155 26.6943C29.8007 26.6943 29.4655 27.0295 29.4655 27.4443C29.4655 27.859 29.8007 28.1942 30.2155 28.1942Z" fill="url(#paint17_linear_584_470)"/>
<path d="M18.4765 37.06C18.2815 37.4253 18.4203 37.8797 18.7855 38.0755C21.6708 39.6137 24.835 40.3833 28 40.3833C31.165 40.3833 34.3293 39.6137 37.2145 38.0755C37.5798 37.8797 37.7185 37.426 37.5235 37.06C37.3285 36.6955 36.8763 36.5567 36.508 36.751C31.18 39.5927 24.8185 39.5927 19.4913 36.751C19.1238 36.5567 18.6723 36.6955 18.4765 37.06Z" fill="url(#paint18_linear_584_470)"/>
<path d="M14.9845 26.809H18.3077C18.7225 26.809 19.0577 26.4737 19.0577 26.059C19.0577 25.6443 18.7225 25.309 18.3077 25.309H14.9845C14.5697 25.309 14.2345 25.6443 14.2345 26.059C14.2345 26.4737 14.5705 26.809 14.9845 26.809Z" fill="url(#paint19_linear_584_470)"/>
<rect x="0.25" y="0.25" width="55.5" height="55.5" rx="7.75" stroke="url(#paint20_linear_584_470)" stroke-width="0.5"/>
</g>
<defs>
<filter id="filter0_b_584_470" x="-40" y="-40" width="136" height="136" filterUnits="userSpaceOnUse" color-interpolation-filters="sRGB">
<feFlood flood-opacity="0" result="BackgroundImageFix"/>
<feGaussianBlur in="BackgroundImageFix" stdDeviation="20"/>
<feComposite in2="SourceAlpha" operator="in" result="effect1_backgroundBlur_584_470"/>
<feBlend mode="normal" in="SourceGraphic" in2="effect1_backgroundBlur_584_470" result="shape"/>
</filter>
<radialGradient id="paint0_radial_584_470" cx="0" cy="0" r="1" gradientUnits="userSpaceOnUse" gradientTransform="translate(28 28) rotate(90) scale(28)">
<stop stop-color="#15FFCE" stop-opacity="0.5"/>
<stop offset="1" stop-color="#404040" stop-opacity="0"/>
</radialGradient>
<linearGradient id="paint1_linear_584_470" x1="35.6043" y1="49" x2="35.6043" y2="7" gradientUnits="userSpaceOnUse">
<stop stop-color="#00A5E9"/>
<stop offset="1" stop-color="#15FFCE"/>
</linearGradient>
<linearGradient id="paint2_linear_584_470" x1="43.5078" y1="49" x2="43.5078" y2="7" gradientUnits="userSpaceOnUse">
<stop stop-color="#00A5E9"/>
<stop offset="1" stop-color="#15FFCE"/>
</linearGradient>
<linearGradient id="paint3_linear_584_470" x1="28" y1="49" x2="28" y2="7.00002" gradientUnits="userSpaceOnUse">
<stop stop-color="#00A5E9"/>
<stop offset="1" stop-color="#15FFCE"/>
</linearGradient>
<linearGradient id="paint4_linear_584_470" x1="20.3957" y1="49" x2="20.3957" y2="7" gradientUnits="userSpaceOnUse">
<stop stop-color="#00A5E9"/>
<stop offset="1" stop-color="#15FFCE"/>
</linearGradient>
<linearGradient id="paint5_linear_584_470" x1="12.4922" y1="49" x2="12.4922" y2="7.00001" gradientUnits="userSpaceOnUse">
<stop stop-color="#00A5E9"/>
<stop offset="1" stop-color="#15FFCE"/>
</linearGradient>
<linearGradient id="paint6_linear_584_470" x1="39.3542" y1="49" x2="39.3542" y2="7" gradientUnits="userSpaceOnUse">
<stop stop-color="#00A5E9"/>
<stop offset="1" stop-color="#15FFCE"/>
</linearGradient>
<linearGradient id="paint7_linear_584_470" x1="46" y1="49" x2="46" y2="6.99999" gradientUnits="userSpaceOnUse">
<stop stop-color="#00A5E9"/>
<stop offset="1" stop-color="#15FFCE"/>
</linearGradient>
<linearGradient id="paint8_linear_584_470" x1="19.1388" y1="49" x2="19.1388" y2="7" gradientUnits="userSpaceOnUse">
<stop stop-color="#00A5E9"/>
<stop offset="1" stop-color="#15FFCE"/>
</linearGradient>
<linearGradient id="paint9_linear_584_470" x1="28.0001" y1="49" x2="28.0001" y2="7" gradientUnits="userSpaceOnUse">
<stop stop-color="#00A5E9"/>
<stop offset="1" stop-color="#15FFCE"/>
</linearGradient>
<linearGradient id="paint10_linear_584_470" x1="36.8612" y1="49" x2="36.8612" y2="7" gradientUnits="userSpaceOnUse">
<stop stop-color="#00A5E9"/>
<stop offset="1" stop-color="#15FFCE"/>
</linearGradient>
<linearGradient id="paint11_linear_584_470" x1="16.6458" y1="49" x2="16.6458" y2="7" gradientUnits="userSpaceOnUse">
<stop stop-color="#00A5E9"/>
<stop offset="1" stop-color="#15FFCE"/>
</linearGradient>
<linearGradient id="paint12_linear_584_470" x1="10" y1="49" x2="10" y2="6.99999" gradientUnits="userSpaceOnUse">
<stop stop-color="#00A5E9"/>
<stop offset="1" stop-color="#15FFCE"/>
</linearGradient>
<linearGradient id="paint13_linear_584_470" x1="12.319" y1="49" x2="12.319" y2="6.99999" gradientUnits="userSpaceOnUse">
<stop stop-color="#00A5E9"/>
<stop offset="1" stop-color="#15FFCE"/>
</linearGradient>
<linearGradient id="paint14_linear_584_470" x1="43.681" y1="49" x2="43.681" y2="7.00002" gradientUnits="userSpaceOnUse">
<stop stop-color="#00A5E9"/>
<stop offset="1" stop-color="#15FFCE"/>
</linearGradient>
<linearGradient id="paint15_linear_584_470" x1="39.3543" y1="49" x2="39.3543" y2="7" gradientUnits="userSpaceOnUse">
<stop stop-color="#00A5E9"/>
<stop offset="1" stop-color="#15FFCE"/>
</linearGradient>
<linearGradient id="paint16_linear_584_470" x1="22.4613" y1="49" x2="22.4613" y2="7" gradientUnits="userSpaceOnUse">
<stop stop-color="#00A5E9"/>
<stop offset="1" stop-color="#15FFCE"/>
</linearGradient>
<linearGradient id="paint17_linear_584_470" x1="33.5387" y1="49" x2="33.5387" y2="7" gradientUnits="userSpaceOnUse">
<stop stop-color="#00A5E9"/>
<stop offset="1" stop-color="#15FFCE"/>
</linearGradient>
<linearGradient id="paint18_linear_584_470" x1="28" y1="49" x2="28" y2="6.99999" gradientUnits="userSpaceOnUse">
<stop stop-color="#00A5E9"/>
<stop offset="1" stop-color="#15FFCE"/>
</linearGradient>
<linearGradient id="paint19_linear_584_470" x1="16.6457" y1="49" x2="16.6457" y2="7" gradientUnits="userSpaceOnUse">
<stop stop-color="#00A5E9"/>
<stop offset="1" stop-color="#15FFCE"/>
</linearGradient>
<linearGradient id="paint20_linear_584_470" x1="28" y1="0" x2="28" y2="56" gradientUnits="userSpaceOnUse">
<stop stop-color="#00A5E9"/>
<stop offset="1" stop-color="#15FFCE"/>
</linearGradient>
</defs>
</svg>
