<svg width="56" height="56" viewBox="0 0 56 56" fill="none" xmlns="http://www.w3.org/2000/svg">
<g filter="url(#filter0_b_584_188)">
<rect width="56" height="56" rx="8" fill="url(#paint0_radial_584_188)" fill-opacity="0.4"/>
<path d="M37.6106 33.4699C37.4293 33.4708 37.2535 33.4072 37.1147 33.2905L31.3442 28.6171C31.2534 28.5419 31.1804 28.4476 31.1302 28.3409C31.0801 28.2343 31.0541 28.1179 31.0541 28V15.0769C31.0541 14.8671 31.1374 14.6658 31.2858 14.5174C31.4342 14.3691 31.6354 14.2857 31.8453 14.2857C32.0551 14.2857 32.2564 14.3691 32.4048 14.5174C32.5531 14.6658 32.6365 14.8671 32.6365 15.0769V27.6255L38.1117 32.0615C38.2419 32.1657 38.3359 32.3084 38.3802 32.4692C38.4245 32.63 38.4169 32.8007 38.3584 32.9569C38.2999 33.1131 38.1935 33.2468 38.0545 33.3389C37.9154 33.431 37.7508 33.4769 37.5842 33.4699H37.6106Z" fill="url(#paint1_linear_584_188)"/>
<path d="M23.9015 36.64H15.0769C14.8671 36.64 14.6658 36.5566 14.5174 36.4083C14.3691 36.2599 14.2857 36.0586 14.2857 35.8488C14.2857 35.639 14.3691 35.4377 14.5174 35.2893C14.6658 35.1409 14.8671 35.0576 15.0769 35.0576H23.9015C24.1114 35.0576 24.3126 35.1409 24.461 35.2893C24.6094 35.4377 24.6927 35.639 24.6927 35.8488C24.6927 36.0586 24.6094 36.2599 24.461 36.4083C24.3126 36.5566 24.1114 36.64 23.9015 36.64Z" fill="url(#paint2_linear_584_188)"/>
<path d="M20.32 28.1477H5.47163C5.26179 28.1477 5.06054 28.0643 4.91216 27.916C4.76378 27.7676 4.68042 27.5663 4.68042 27.3565C4.68042 27.1466 4.76378 26.9454 4.91216 26.797C5.06054 26.6486 5.26179 26.5653 5.47163 26.5653H20.32C20.5298 26.5653 20.7311 26.6486 20.8794 26.797C21.0278 26.9454 21.1112 27.1466 21.1112 27.3565C21.1112 27.5663 21.0278 27.7676 20.8794 27.916C20.7311 28.0643 20.5298 28.1477 20.32 28.1477Z" fill="url(#paint3_linear_584_188)"/>
<path d="M14.6708 19.5604H9.39607C9.18623 19.5604 8.98498 19.4771 8.8366 19.3287C8.68822 19.1803 8.60486 18.9791 8.60486 18.7692C8.60486 18.5594 8.68822 18.3581 8.8366 18.2098C8.98498 18.0614 9.18623 17.978 9.39607 17.978H14.6708C14.8806 17.978 15.0819 18.0614 15.2303 18.2098C15.3786 18.3581 15.462 18.5594 15.462 18.7692C15.462 18.9791 15.3786 19.1803 15.2303 19.3287C15.0819 19.4771 14.8806 19.5604 14.6708 19.5604Z" fill="url(#paint4_linear_584_188)"/>
<path d="M31.8453 43.033C31.6354 43.033 31.4342 42.9496 31.2858 42.8012C31.1374 42.6528 31.0541 42.4516 31.0541 42.2417V42.0835C31.0541 41.8737 31.1374 41.6724 31.2858 41.524C31.4342 41.3757 31.6354 41.2923 31.8453 41.2923C32.0551 41.2923 32.2564 41.3757 32.4048 41.524C32.5531 41.6724 32.6365 41.8737 32.6365 42.0835V42.2417C32.6365 42.4516 32.5531 42.6528 32.4048 42.8012C32.2564 42.9496 32.0551 43.033 31.8453 43.033Z" fill="url(#paint5_linear_584_188)"/>
<path d="M46.5829 28.7912H46.4246C46.2148 28.7912 46.0135 28.7079 45.8652 28.5595C45.7168 28.4111 45.6334 28.2099 45.6334 28C45.6334 27.7902 45.7168 27.5889 45.8652 27.4405C46.0135 27.2922 46.2148 27.2088 46.4246 27.2088H46.5829C46.7927 27.2088 46.994 27.2922 47.1423 27.4405C47.2907 27.5889 47.3741 27.7902 47.3741 28C47.3741 28.2099 47.2907 28.4111 47.1423 28.5595C46.994 28.7079 46.7927 28.7912 46.5829 28.7912Z" fill="url(#paint6_linear_584_188)"/>
<path d="M13.3943 31.3547C13.2038 31.3552 13.0196 31.2864 12.876 31.1613C12.7324 31.0361 12.6392 30.8631 12.6136 30.6743C12.4919 29.7882 12.4338 28.8944 12.4395 28C12.4395 27.7902 12.5229 27.5889 12.6713 27.4405C12.8197 27.2922 13.0209 27.2088 13.2307 27.2088C13.4406 27.2088 13.6418 27.2922 13.7902 27.4405C13.9386 27.5889 14.022 27.7902 14.022 28C14.022 28.8205 14.0784 29.64 14.1907 30.4528C14.2047 30.5572 14.1977 30.6634 14.1702 30.765C14.1426 30.8667 14.095 30.9619 14.0301 31.0449C13.9652 31.1279 13.8845 31.1972 13.7925 31.2486C13.7005 31.3 13.5992 31.3325 13.4945 31.3442L13.3943 31.3547Z" fill="url(#paint7_linear_584_188)"/>
<path d="M31.8453 47.4163C29.2357 47.4255 26.6515 46.9042 24.2495 45.8841C21.8476 44.864 19.678 43.3664 17.8725 41.4822C17.7521 41.3274 17.6935 41.1335 17.708 40.9379C17.7225 40.7424 17.8091 40.5592 17.951 40.4238C18.0929 40.2885 18.28 40.2107 18.476 40.2055C18.672 40.2003 18.863 40.268 19.0119 40.3956C20.6703 42.1251 22.6633 43.499 24.8695 44.434C27.0758 45.3689 29.4492 45.8451 31.8453 45.8338C35.0239 45.8329 38.1445 44.9825 40.8841 43.3706C43.6237 41.7587 45.8826 39.4438 47.4272 36.6657C48.9717 33.8875 49.7456 30.7471 49.6689 27.5694C49.5921 24.3917 48.6675 21.2923 46.9906 18.5919C45.3138 15.8916 42.9457 13.6885 40.1315 12.2107C37.3173 10.7329 34.1592 10.0341 30.9843 10.1867C27.8093 10.3393 24.7328 11.3376 22.0733 13.0784C19.4137 14.8192 17.2678 17.2392 15.8576 20.0879C15.7639 20.2761 15.5992 20.4193 15.3999 20.4861C15.2006 20.5528 14.9829 20.5377 14.7947 20.444C14.6066 20.3502 14.4633 20.1856 14.3966 19.9863C14.3298 19.7869 14.345 19.5693 14.4387 19.3811C15.9741 16.2782 18.311 13.6422 21.2074 11.7459C24.1039 9.84956 27.4546 8.76194 30.9125 8.59561C34.3705 8.42929 37.8101 9.1903 40.8752 10.7999C43.9403 12.4094 46.5194 14.809 48.3455 17.7502C50.1716 20.6914 51.1784 24.0672 51.2616 27.5282C51.3447 30.9892 50.5012 34.4095 48.8185 37.435C47.1357 40.4605 44.6748 42.9812 41.6906 44.7361C38.7063 46.491 35.3073 47.4163 31.8453 47.4163Z" fill="url(#paint8_linear_584_188)"/>
<path d="M10.6145 36.64H9.17451C8.96467 36.64 8.76342 36.5566 8.61504 36.4083C8.46666 36.2599 8.3833 36.0586 8.3833 35.8488C8.3833 35.639 8.46666 35.4377 8.61504 35.2893C8.76342 35.1409 8.96467 35.0576 9.17451 35.0576H10.6145C10.8244 35.0576 11.0256 35.1409 11.174 35.2893C11.3224 35.4377 11.4057 35.639 11.4057 35.8488C11.4057 36.0586 11.3224 36.2599 11.174 36.4083C11.0256 36.5566 10.8244 36.64 10.6145 36.64Z" fill="url(#paint9_linear_584_188)"/>
<path d="M14.1169 22.8202C13.9837 22.8187 13.853 22.7837 13.7368 22.7186C13.6205 22.6534 13.5225 22.5602 13.4517 22.4473C13.3808 22.3345 13.3394 22.2057 13.3312 22.0727C13.323 21.9397 13.3483 21.8068 13.4048 21.6862L14.502 19.3917C14.5466 19.2978 14.6094 19.2137 14.6866 19.144C14.7638 19.0744 14.8539 19.0207 14.9519 18.9859C15.0498 18.9511 15.1537 18.936 15.2575 18.9414C15.3613 18.9467 15.463 18.9725 15.5569 19.0172C15.6508 19.0618 15.7349 19.1246 15.8045 19.2018C15.8741 19.2789 15.9279 19.3691 15.9626 19.4671C15.9974 19.565 16.0126 19.6689 16.0072 19.7727C16.0018 19.8765 15.9761 19.9782 15.9314 20.0721L14.8343 22.3719C14.7689 22.5064 14.6669 22.6199 14.54 22.6992C14.4132 22.7785 14.2665 22.8204 14.1169 22.8202Z" fill="url(#paint10_linear_584_188)"/>
<rect x="0.25" y="0.25" width="55.5" height="55.5" rx="7.75" stroke="url(#paint11_linear_584_188)" stroke-width="0.5"/>
</g>
<defs>
<filter id="filter0_b_584_188" x="-40" y="-40" width="136" height="136" filterUnits="userSpaceOnUse" color-interpolation-filters="sRGB">
<feFlood flood-opacity="0" result="BackgroundImageFix"/>
<feGaussianBlur in="BackgroundImageFix" stdDeviation="20"/>
<feComposite in2="SourceAlpha" operator="in" result="effect1_backgroundBlur_584_188"/>
<feBlend mode="normal" in="SourceGraphic" in2="effect1_backgroundBlur_584_188" result="shape"/>
</filter>
<radialGradient id="paint0_radial_584_188" cx="0" cy="0" r="1" gradientUnits="userSpaceOnUse" gradientTransform="translate(28 28) rotate(90) scale(28)">
<stop stop-color="#15FFCE" stop-opacity="0.5"/>
<stop offset="1" stop-color="#404040" stop-opacity="0"/>
</radialGradient>
<linearGradient id="paint1_linear_584_188" x1="34.7313" y1="14.2857" x2="34.7313" y2="33.4706" gradientUnits="userSpaceOnUse">
<stop stop-color="#00A5E9"/>
<stop offset="1" stop-color="#15FFCE"/>
</linearGradient>
<linearGradient id="paint2_linear_584_188" x1="19.4892" y1="35.0576" x2="19.4892" y2="36.64" gradientUnits="userSpaceOnUse">
<stop stop-color="#00A5E9"/>
<stop offset="1" stop-color="#15FFCE"/>
</linearGradient>
<linearGradient id="paint3_linear_584_188" x1="12.8958" y1="26.5653" x2="12.8958" y2="28.1477" gradientUnits="userSpaceOnUse">
<stop stop-color="#00A5E9"/>
<stop offset="1" stop-color="#15FFCE"/>
</linearGradient>
<linearGradient id="paint4_linear_584_188" x1="12.0334" y1="17.978" x2="12.0334" y2="19.5604" gradientUnits="userSpaceOnUse">
<stop stop-color="#00A5E9"/>
<stop offset="1" stop-color="#15FFCE"/>
</linearGradient>
<linearGradient id="paint5_linear_584_188" x1="31.8453" y1="41.2923" x2="31.8453" y2="43.033" gradientUnits="userSpaceOnUse">
<stop stop-color="#00A5E9"/>
<stop offset="1" stop-color="#15FFCE"/>
</linearGradient>
<linearGradient id="paint6_linear_584_188" x1="46.5038" y1="27.2088" x2="46.5038" y2="28.7912" gradientUnits="userSpaceOnUse">
<stop stop-color="#00A5E9"/>
<stop offset="1" stop-color="#15FFCE"/>
</linearGradient>
<linearGradient id="paint7_linear_584_188" x1="13.3185" y1="27.2088" x2="13.3185" y2="31.3547" gradientUnits="userSpaceOnUse">
<stop stop-color="#00A5E9"/>
<stop offset="1" stop-color="#15FFCE"/>
</linearGradient>
<linearGradient id="paint8_linear_584_188" x1="32.8113" y1="8.57318" x2="32.8113" y2="47.4164" gradientUnits="userSpaceOnUse">
<stop stop-color="#00A5E9"/>
<stop offset="1" stop-color="#15FFCE"/>
</linearGradient>
<linearGradient id="paint9_linear_584_188" x1="9.89451" y1="35.0576" x2="9.89451" y2="36.64" gradientUnits="userSpaceOnUse">
<stop stop-color="#00A5E9"/>
<stop offset="1" stop-color="#15FFCE"/>
</linearGradient>
<linearGradient id="paint10_linear_584_188" x1="14.669" y1="18.9403" x2="14.669" y2="22.8202" gradientUnits="userSpaceOnUse">
<stop stop-color="#00A5E9"/>
<stop offset="1" stop-color="#15FFCE"/>
</linearGradient>
<linearGradient id="paint11_linear_584_188" x1="28" y1="0" x2="28" y2="56" gradientUnits="userSpaceOnUse">
<stop stop-color="#00A5E9"/>
<stop offset="1" stop-color="#15FFCE"/>
</linearGradient>
</defs>
</svg>
