<svg width="56" height="56" viewBox="0 0 56 56" fill="none" xmlns="http://www.w3.org/2000/svg">
<g filter="url(#filter0_b_584_496)">
<rect width="56" height="56" rx="8" fill="url(#paint0_radial_584_496)" fill-opacity="0.4"/>
<path d="M16.8405 34.2095C17.2887 33.9509 17.4421 33.3771 17.1836 32.9288C16.9247 32.481 16.3512 32.3272 15.903 32.5857C15.4547 32.8446 15.3009 33.4185 15.5598 33.8663C15.8184 34.3146 16.3922 34.4684 16.8405 34.2095Z" fill="url(#paint1_linear_584_496)"/>
<path d="M12.9985 40.6801L17.7197 48.8579C18.7385 50.6245 21.0303 51.2786 22.8426 50.2308C24.636 49.1945 25.2523 46.9031 24.2148 45.1083L21.4023 40.2362L23.838 38.83C24.2862 38.5707 24.4401 37.9976 24.1811 37.5493L22.962 35.4377C23.1074 35.4095 24.0632 35.222 40.9188 31.9155C43.0025 31.8024 44.251 29.5234 43.1985 27.7015L40.0827 22.3051L42.0738 19.2893C42.2694 18.9927 42.2811 18.6115 42.1035 18.3038L40.2285 15.0563C40.0509 14.7487 39.7136 14.5685 39.3602 14.5894L35.7534 14.8058L32.2945 8.81458C31.7936 7.94666 30.896 7.42114 29.894 7.40869C29.8819 7.40833 29.8702 7.40833 29.8581 7.40833C28.8899 7.40833 28.011 7.89026 27.4902 8.70508L15.2434 24.3064L7.2816 28.9031C4.15013 30.7103 3.06541 34.7277 4.87962 37.8676C6.53709 40.7386 10.0315 41.868 12.9985 40.6801ZM22.5914 46.0461C23.1092 46.9419 22.8027 48.0881 21.9044 48.6071C21.0032 49.1282 19.8555 48.8081 19.3435 47.9208L14.656 39.8008L17.9036 37.9258C23.3286 47.3235 22.5043 45.8956 22.5914 46.0461ZM20.4648 38.6121L19.5273 36.9883L21.1511 36.0508L22.0886 37.6746L20.4648 38.6121ZM38.8944 16.4955L40.19 18.7396L39.0347 20.4894L36.8015 16.6211L38.8944 16.4955ZM29.0583 9.73303C29.3099 9.32141 29.7091 9.27893 29.871 9.28333C30.031 9.28516 30.4298 9.33496 30.6704 9.75171L41.5747 28.639C41.9299 29.2539 41.4982 30.027 40.7859 30.0446C40.6581 30.0475 40.5991 30.0706 40.2717 30.1317L28.7372 10.1531C28.9792 9.8418 29.0104 9.81177 29.0583 9.73303ZM27.4895 11.7424L38.3268 30.5133L21.9711 33.7213L16.9979 25.1077L27.4895 11.7424ZM6.5034 36.9301C6.09178 36.2178 5.87425 35.4092 5.87425 34.5911C5.87425 32.9189 6.77293 31.3618 8.2191 30.5269L15.5261 26.3081L20.2136 34.427L12.9066 38.6461C10.668 39.9381 7.79576 39.1683 6.5034 36.9301Z" fill="url(#paint2_linear_584_496)"/>
<path d="M13.936 34.8038C13.6771 34.3556 13.1036 34.2018 12.6554 34.4607L11.0316 35.3982C10.5841 35.6567 10.0095 35.5026 9.75098 35.0551C9.49207 34.6068 8.91858 34.453 8.47034 34.7119C8.0221 34.9708 7.86829 35.5443 8.1272 35.9926C8.89881 37.3292 10.62 37.8005 11.9691 37.022L13.5929 36.0845C14.0411 35.8256 14.195 35.2524 13.936 34.8038Z" fill="url(#paint3_linear_584_496)"/>
<path d="M50.6066 9.41371L45.3826 12.3207C44.9303 12.5726 44.7673 13.1436 45.0193 13.5958C45.2705 14.0477 45.8411 14.2114 46.2944 13.9591L51.5181 11.0521C51.9707 10.8002 52.1333 10.2293 51.8813 9.77699C51.6298 9.32436 51.0588 9.16176 50.6066 9.41371Z" fill="url(#paint4_linear_584_496)"/>
<path d="M50.0587 19.1234L46.4365 18.153C45.9362 18.0189 45.4221 18.3156 45.288 18.8158C45.154 19.316 45.451 19.8298 45.9512 19.9639L49.5738 20.9343C50.077 21.0695 50.5886 20.7681 50.7219 20.2715C50.8559 19.7712 50.5589 19.2571 50.0587 19.1234Z" fill="url(#paint5_linear_584_496)"/>
<path d="M40.9561 6.00757L39.9846 9.63013C39.8506 10.1304 40.1472 10.6442 40.6474 10.7786C41.1473 10.9122 41.6615 10.6163 41.7959 10.1157L42.7671 6.49317C42.9011 5.99292 42.6045 5.47876 42.1042 5.34473C41.6043 5.2107 41.0902 5.50733 40.9561 6.00757Z" fill="url(#paint6_linear_584_496)"/>
<rect x="0.25" y="0.25" width="55.5" height="55.5" rx="7.75" stroke="url(#paint7_linear_584_496)" stroke-width="0.5"/>
</g>
<defs>
<filter id="filter0_b_584_496" x="-40" y="-40" width="136" height="136" filterUnits="userSpaceOnUse" color-interpolation-filters="sRGB">
<feFlood flood-opacity="0" result="BackgroundImageFix"/>
<feGaussianBlur in="BackgroundImageFix" stdDeviation="20"/>
<feComposite in2="SourceAlpha" operator="in" result="effect1_backgroundBlur_584_496"/>
<feBlend mode="normal" in="SourceGraphic" in2="effect1_backgroundBlur_584_496" result="shape"/>
</filter>
<radialGradient id="paint0_radial_584_496" cx="0" cy="0" r="1" gradientUnits="userSpaceOnUse" gradientTransform="translate(28 28) rotate(90) scale(28)">
<stop stop-color="#15FFCE" stop-opacity="0.5"/>
<stop offset="1" stop-color="#404040" stop-opacity="0"/>
</radialGradient>
<linearGradient id="paint1_linear_584_496" x1="16.3716" y1="32.4602" x2="16.3716" y2="34.3352" gradientUnits="userSpaceOnUse">
<stop stop-color="#00A5E9"/>
<stop offset="1" stop-color="#15FFCE"/>
</linearGradient>
<linearGradient id="paint2_linear_584_496" x1="23.7897" y1="7.40833" x2="23.7897" y2="50.7334" gradientUnits="userSpaceOnUse">
<stop stop-color="#00A5E9"/>
<stop offset="1" stop-color="#15FFCE"/>
</linearGradient>
<linearGradient id="paint3_linear_584_496" x1="11.0316" y1="34.335" x2="11.0316" y2="37.3983" gradientUnits="userSpaceOnUse">
<stop stop-color="#00A5E9"/>
<stop offset="1" stop-color="#15FFCE"/>
</linearGradient>
<linearGradient id="paint4_linear_584_496" x1="48.4504" y1="9.2951" x2="48.4504" y2="14.0777" gradientUnits="userSpaceOnUse">
<stop stop-color="#00A5E9"/>
<stop offset="1" stop-color="#15FFCE"/>
</linearGradient>
<linearGradient id="paint5_linear_584_496" x1="48.005" y1="18.1208" x2="48.005" y2="20.9667" gradientUnits="userSpaceOnUse">
<stop stop-color="#00A5E9"/>
<stop offset="1" stop-color="#15FFCE"/>
</linearGradient>
<linearGradient id="paint6_linear_584_496" x1="41.3758" y1="5.31253" x2="41.3758" y2="10.8107" gradientUnits="userSpaceOnUse">
<stop stop-color="#00A5E9"/>
<stop offset="1" stop-color="#15FFCE"/>
</linearGradient>
<linearGradient id="paint7_linear_584_496" x1="28" y1="0" x2="28" y2="56" gradientUnits="userSpaceOnUse">
<stop stop-color="#00A5E9"/>
<stop offset="1" stop-color="#15FFCE"/>
</linearGradient>
</defs>
</svg>
