<svg width="56" height="56" viewBox="0 0 56 56" fill="none" xmlns="http://www.w3.org/2000/svg">
<g filter="url(#filter0_b_584_433)">
<rect width="56" height="56" rx="8" fill="url(#paint0_radial_584_433)" fill-opacity="0.4"/>
<path d="M51.7752 20.0382L42.4658 10.7288C42.1665 10.4293 41.6812 10.4293 41.3816 10.7288L36.727 15.3834C36.5833 15.5272 36.5025 15.7222 36.5025 15.9255C36.5025 16.1288 36.5833 16.3238 36.727 16.4676L37.1913 16.9319L36.1243 17.9988C35.4315 18.6912 34.3567 18.8802 33.4498 18.4685C32.5995 18.0826 31.6542 17.8787 30.7159 17.8787C29.6019 17.8787 28.5132 18.1583 27.5459 18.688C27.1425 18.5886 26.7285 18.5377 26.3104 18.5377C25.7057 18.5377 25.1118 18.6421 24.5452 18.848C23.6404 19.1767 22.6706 18.973 22.0137 18.3163L20.0977 16.4002L20.3259 16.1721C20.4696 16.0283 20.5503 15.8333 20.5503 15.63C20.5503 15.4267 20.4696 15.2317 20.3259 15.0879L15.6712 10.4333C15.3717 10.1338 14.8864 10.1338 14.587 10.4333L4.22451 20.7958C3.92516 21.0952 3.92516 21.5806 4.22451 21.8799L8.87907 26.5346C9.02288 26.6784 9.21779 26.7591 9.42123 26.7591C9.62466 26.7591 9.81947 26.6784 9.96338 26.5346L10.241 26.257L11.5923 27.6083C11.9332 27.9492 12.1593 28.375 12.2458 28.8393C12.6945 31.2471 13.8476 33.436 15.5805 35.1698L15.835 35.4243C15.3462 35.9391 15.0773 36.6098 15.0773 37.3223C15.0773 38.0593 15.3644 38.7522 15.8854 39.2733C16.4234 39.8113 17.1298 40.0801 17.8365 40.0801C17.8825 40.0801 17.9283 40.0789 17.9744 40.0766C17.9371 40.8283 18.2048 41.5925 18.7776 42.1655C19.2988 42.6867 19.9917 42.9736 20.7286 42.9736C20.7492 42.9736 20.7696 42.9726 20.7901 42.9721C20.7744 43.6986 21.0424 44.4301 21.5955 44.9833C22.1167 45.5046 22.8096 45.7914 23.5466 45.7914C24.2836 45.7914 24.9764 45.5044 25.4977 44.9833C25.5415 44.9394 25.5829 44.8941 25.6233 44.8481C25.8947 44.9427 26.1818 44.9931 26.4719 44.9931C27.1612 44.9931 27.8089 44.7245 28.2945 44.2373C28.553 43.9789 28.7491 43.675 28.8768 43.3439L28.9552 43.4224C29.4576 43.9248 30.1175 44.176 30.7774 44.176C31.4373 44.176 32.0973 43.9248 32.5997 43.4224C32.8667 43.1554 33.0673 42.8401 33.1944 42.4963C33.6441 42.8234 34.1765 42.9872 34.7092 42.9872C35.3691 42.9872 36.0294 42.7361 36.5323 42.2338C37.0189 41.7472 37.2869 41.0998 37.2869 40.4109C37.2869 40.2028 37.262 39.9987 37.2145 39.8013C37.7054 39.7016 38.1566 39.4605 38.5185 39.0981C39.0052 38.6115 39.2732 37.9643 39.2732 37.2759C39.2732 36.7336 39.1061 36.2173 38.7976 35.7843L39.4126 35.1694C41.1656 33.4155 42.3237 31.1991 42.7618 28.7596C42.8352 28.3511 43.0375 27.9717 43.3471 27.6621L45.6344 25.3748L46.0365 25.7769C46.1862 25.9266 46.3824 26.0014 46.5786 26.0014C46.7748 26.0014 46.9711 25.9266 47.1208 25.7769L51.7755 21.1222C51.9192 20.9785 51.9999 20.7835 51.9999 20.5802C51.9999 20.3768 51.9189 20.182 51.7752 20.0382ZM9.42123 24.9085L5.85068 21.3379L15.129 12.0596L18.6996 15.6302L9.42123 24.9085ZM18.7033 38.1894C18.2254 38.6671 17.4478 38.6673 16.9696 38.1894C16.738 37.9577 16.6105 37.65 16.6105 37.3225C16.6105 36.9951 16.7381 36.6872 16.9697 36.4557C17.2086 36.2167 17.5224 36.0972 17.8364 36.0972C18.1502 36.0972 18.4643 36.2167 18.7032 36.4557C19.1811 36.9336 19.1811 37.7114 18.7033 38.1894ZM21.5953 41.0814C21.3639 41.313 21.0561 41.4404 20.7284 41.4404C20.4011 41.4404 20.0932 41.3128 19.8617 41.0814C19.3837 40.6034 19.3837 39.8257 19.8617 39.3477C20.1007 39.1087 20.4145 38.9892 20.7285 38.9892C21.0423 38.9892 21.3564 39.1087 21.5953 39.3477C22.0734 39.8256 22.0734 40.6034 21.5953 41.0814ZM24.4132 43.8992C24.1816 44.1308 23.8738 44.2583 23.5465 44.2583C23.219 44.2583 22.9111 44.1307 22.6797 43.8992C22.2016 43.4213 22.2016 42.6435 22.6797 42.1655C22.9186 41.9265 23.2324 41.807 23.5465 41.807C23.8602 41.807 24.1743 41.9265 24.4132 42.1655C24.8912 42.6435 24.8912 43.4213 24.4132 43.8992ZM37.4338 38.0144C37.2368 38.2116 36.9748 38.3203 36.6961 38.3203C36.4175 38.3203 36.1555 38.2116 35.958 38.0139L28.5209 30.5784C28.2213 30.2791 27.736 30.2792 27.4367 30.5786C27.1374 30.878 27.1375 31.3634 27.4369 31.6627L35.4479 39.6729C35.645 39.8699 35.7535 40.1321 35.7535 40.4109C35.7535 40.6903 35.6449 40.9527 35.4481 41.1494C35.0406 41.5566 34.3779 41.5567 33.971 41.1497L32.6195 39.7982C32.612 39.7904 32.6047 39.7826 32.5969 39.7749C32.5947 39.7726 32.5922 39.7707 32.5898 39.7684L26.3773 33.5559C26.0778 33.2566 25.5925 33.2566 25.2931 33.5559C24.9937 33.8553 24.9937 34.3407 25.2931 34.64L31.5256 40.8724C31.7161 41.0677 31.821 41.3261 31.821 41.6002C31.821 41.879 31.7123 42.1411 31.5153 42.3382C31.1086 42.7451 30.4464 42.7451 30.0394 42.3382L23.2814 35.5802C22.9819 35.2807 22.4967 35.2807 22.1972 35.5802C21.8978 35.8795 21.8978 36.3649 22.1972 36.6643L27.2066 41.6738C27.208 41.6752 27.2092 41.6768 27.2107 41.6781C27.4076 41.8747 27.516 42.1363 27.516 42.4149C27.516 42.6936 27.4074 42.9557 27.2095 43.1536C27.0128 43.3509 26.7508 43.4595 26.4717 43.4595C26.4043 43.4595 26.3384 43.4526 26.2739 43.4404C26.3979 42.6048 26.1393 41.7229 25.4975 41.081C24.9763 40.5599 24.2834 40.2729 23.5465 40.2729C23.5259 40.2729 23.5055 40.2739 23.485 40.2744C23.5007 39.5479 23.2328 38.8164 22.6796 38.2632C22.1583 37.7421 21.4655 37.4551 20.7284 37.4551C20.6823 37.4551 20.6365 37.4562 20.5907 37.4584C20.6276 36.7071 20.3598 35.9436 19.7873 35.371C19.0904 34.6742 18.1107 34.4294 17.2144 34.6354L16.6647 34.0856C15.1516 32.5718 14.1449 30.6605 13.7531 28.5581C13.6096 27.7882 13.2373 27.0847 12.6766 26.5239L11.3252 25.1725L19.0136 17.4841L20.9296 19.4001C21.6661 20.1366 22.6689 20.5307 23.6959 20.5307C24.1558 20.5307 24.6209 20.4516 25.0689 20.2888C25.2863 20.2097 25.511 20.153 25.7387 20.117L20.992 24.8638C20.4112 25.4445 20.0913 26.2167 20.0913 27.038C20.0913 27.8592 20.4112 28.6314 20.9919 29.212C21.5913 29.8115 22.3784 30.1111 23.1659 30.111C23.9532 30.111 24.7406 29.8112 25.3402 29.212L27.7242 26.828L28.3695 27.4737C28.3697 27.4739 28.3698 27.474 28.37 27.4742L28.3968 27.501L28.4226 27.5268C28.4226 27.5268 28.4228 27.5271 28.423 27.5272L28.4235 27.5276C28.4309 27.535 28.4381 27.5419 28.4453 27.5488L37.4341 36.5376C37.6313 36.7347 37.7397 36.9968 37.7397 37.2756C37.7397 37.5549 37.6313 37.817 37.4338 38.0144ZM42.2626 26.5781C41.7307 27.1101 41.3814 27.7708 41.2525 28.4888C40.87 30.6188 39.8588 32.5541 38.3282 34.0854L37.7391 34.6746L32.8893 29.8249C32.9947 29.8327 33.1006 29.8378 33.2072 29.8378C33.6982 29.8378 34.2007 29.7518 34.701 29.5471C35.0928 29.3868 35.2805 28.9391 35.1202 28.5474C34.9599 28.1556 34.5126 27.9678 34.1205 28.1281C32.1474 28.9354 29.7819 26.7106 29.5186 26.4542C29.5142 26.4499 29.5098 26.4457 29.5053 26.4416L29.4781 26.4144L29.4778 26.4142L29.4541 26.3906C29.4541 26.3906 29.4538 26.3903 29.4536 26.3902L28.8082 25.7443L29.54 25.0124C29.8396 24.713 29.8396 24.2277 29.5401 23.9282C29.2407 23.629 28.7554 23.6289 28.456 23.9282L27.1838 25.2004C27.1834 25.2009 27.1828 25.2013 27.1823 25.2018C27.1819 25.2023 27.1814 25.2028 27.1809 25.2033L24.256 28.1283C23.6548 28.7293 22.677 28.7291 22.0761 28.1283C21.785 27.8372 21.6247 27.4501 21.6247 27.0384C21.6247 26.6266 21.785 26.2395 22.0762 25.9484L27.1248 20.8997C27.4057 20.6189 27.7178 20.3718 28.0534 20.1649C28.8505 19.6722 29.7712 19.4118 30.7159 19.4118C31.4372 19.4118 32.1633 19.5683 32.8162 19.8647C34.3014 20.5385 36.0666 20.2246 37.2085 19.083L38.2756 18.016L44.5502 24.2906L42.2626 26.5781ZM46.5784 24.1509L38.3532 15.9257L41.9238 12.3551L50.149 20.5803L46.5784 24.1509Z" fill="url(#paint1_linear_584_433)"/>
<path d="M47.3507 21.9331C47.7741 21.9331 48.1173 21.5898 48.1173 21.1665C48.1173 20.7431 47.7741 20.3999 47.3507 20.3999C46.9273 20.3999 46.5841 20.7431 46.5841 21.1665C46.5841 21.5898 46.9273 21.9331 47.3507 21.9331Z" fill="url(#paint2_linear_584_433)"/>
<path d="M9.0219 22.6905C9.44528 22.6905 9.78849 22.3472 9.78849 21.9239C9.78849 21.5005 9.44528 21.1573 9.0219 21.1573C8.59852 21.1573 8.25531 21.5005 8.25531 21.9239C8.25531 22.3472 8.59852 22.6905 9.0219 22.6905Z" fill="url(#paint3_linear_584_433)"/>
<rect x="0.25" y="0.25" width="55.5" height="55.5" rx="7.75" stroke="url(#paint4_linear_584_433)" stroke-width="0.5"/>
</g>
<defs>
<filter id="filter0_b_584_433" x="-40" y="-40" width="136" height="136" filterUnits="userSpaceOnUse" color-interpolation-filters="sRGB">
<feFlood flood-opacity="0" result="BackgroundImageFix"/>
<feGaussianBlur in="BackgroundImageFix" stdDeviation="20"/>
<feComposite in2="SourceAlpha" operator="in" result="effect1_backgroundBlur_584_433"/>
<feBlend mode="normal" in="SourceGraphic" in2="effect1_backgroundBlur_584_433" result="shape"/>
</filter>
<radialGradient id="paint0_radial_584_433" cx="0" cy="0" r="1" gradientUnits="userSpaceOnUse" gradientTransform="translate(28 28) rotate(90) scale(28)">
<stop stop-color="#15FFCE" stop-opacity="0.5"/>
<stop offset="1" stop-color="#404040" stop-opacity="0"/>
</radialGradient>
<linearGradient id="paint1_linear_584_433" x1="27.9999" y1="10.2087" x2="27.9999" y2="45.7914" gradientUnits="userSpaceOnUse">
<stop stop-color="#00A5E9"/>
<stop offset="1" stop-color="#15FFCE"/>
</linearGradient>
<linearGradient id="paint2_linear_584_433" x1="47.3507" y1="20.3999" x2="47.3507" y2="21.9331" gradientUnits="userSpaceOnUse">
<stop stop-color="#00A5E9"/>
<stop offset="1" stop-color="#15FFCE"/>
</linearGradient>
<linearGradient id="paint3_linear_584_433" x1="9.0219" y1="21.1573" x2="9.0219" y2="22.6905" gradientUnits="userSpaceOnUse">
<stop stop-color="#00A5E9"/>
<stop offset="1" stop-color="#15FFCE"/>
</linearGradient>
<linearGradient id="paint4_linear_584_433" x1="28" y1="0" x2="28" y2="56" gradientUnits="userSpaceOnUse">
<stop stop-color="#00A5E9"/>
<stop offset="1" stop-color="#15FFCE"/>
</linearGradient>
</defs>
</svg>
